<svg width="442" height="311" viewBox="0 0 442 311" fill="none" xmlns="http://www.w3.org/2000/svg">
<g filter="url(#filter0_f_240_3543)">
<path d="M107.268 6.62991C114.278 6.62816 121.27 7.33643 128.137 8.74391C141.39 11.4736 153.974 16.7956 165.164 24.4039C180.667 34.9116 193.053 49.4013 201.021 66.3504C208.989 83.2994 212.244 102.082 210.444 120.724C208.644 139.365 201.856 157.178 190.793 172.29C179.73 187.401 164.801 199.254 147.574 206.602C141.312 209.263 134.8 211.294 128.136 212.667C113.685 215.597 98.7754 215.414 84.4005 212.131C70.0257 208.847 56.5155 202.538 44.77 193.624C33.0244 184.71 23.3132 173.396 16.2832 160.434C9.25319 147.473 5.06578 133.162 3.99992 118.456C15.3314 121.108 27.1023 121.278 38.5059 118.956C48.7389 116.86 58.4592 112.77 67.1119 106.919C79.9742 98.2356 90.0422 86.0085 96.0959 71.7189C98.1414 66.8794 99.7027 61.8492 100.757 56.7019C103.004 45.6732 102.921 34.2966 100.513 23.3019C99.3016 17.8042 97.5102 12.4505 95.1689 7.33092C99.185 6.86357 103.225 6.6295 107.268 6.62991Z" fill="#713FFD"/>
<g filter="url(#filter1_f_240_3543)">
<path d="M177.339 38.8029C154.095 17.8734 123.644 13.7982 109.325 29.7006C95.0065 45.603 102.242 75.4612 125.487 96.3907C148.732 117.32 179.182 121.395 193.501 105.493C207.82 89.5906 200.584 59.7324 177.339 38.8029Z" fill="#A586FC"/>
</g>
<g filter="url(#filter2_d_240_3543)">
<path d="M311.999 278.782H120.567C101.997 278.768 84.1516 271.57 70.7677 258.697C57.3838 245.823 49.4988 228.271 48.7633 209.715C48.0278 191.159 54.4988 173.038 66.8217 159.146C79.1447 145.253 96.3641 136.666 114.875 135.182C117.515 116.542 125.932 99.1986 138.943 85.5919C151.953 71.9852 168.902 62.7999 187.406 59.3283C205.909 55.8567 225.035 58.2735 242.093 66.2387C259.151 74.2038 273.282 87.3165 282.499 103.732C299.404 97.8799 317.669 97.1962 334.965 101.768C352.26 106.34 367.802 115.959 379.607 129.401C391.413 142.842 398.947 159.495 401.249 177.235C403.55 194.976 400.516 213 392.531 229.009C387.846 243.472 378.699 256.08 366.403 265.022C354.107 273.964 339.295 278.781 324.091 278.782H311.999Z" fill="url(#paint0_linear_240_3543)"/>
<path d="M324.091 277.781C331.81 277.781 339.4 276.549 346.65 274.118C353.66 271.767 360.242 268.337 366.211 263.922C372.112 259.558 377.285 254.33 381.586 248.384C385.941 242.364 389.303 235.742 391.579 228.701L391.603 228.629L391.637 228.561C394.664 222.513 396.995 216.115 398.565 209.545C400.18 202.785 400.999 195.799 400.999 188.781C400.999 182.742 400.391 176.707 399.191 170.844C398.022 165.13 396.277 159.51 394.006 154.139C391.775 148.866 389.014 143.779 385.8 139.022C382.616 134.309 378.96 129.877 374.932 125.849C370.904 121.821 366.472 118.165 361.759 114.981C357.001 111.766 351.915 109.006 346.642 106.775C341.271 104.503 335.651 102.759 329.937 101.59C324.074 100.39 318.039 99.7814 311.999 99.7814C302 99.7814 292.185 101.427 282.826 104.673L282.037 104.946L281.627 104.218C274.011 90.6761 262.933 79.3035 249.591 71.3297C242.843 67.2971 235.594 64.1809 228.045 62.0676C220.256 59.8873 212.166 58.7819 203.999 58.7819C193.015 58.7819 182.292 60.7589 172.129 64.6579C162.311 68.4246 153.304 73.8656 145.359 80.8299C137.46 87.7541 130.905 95.9241 125.875 105.113C120.723 114.527 117.355 124.689 115.865 135.317L115.754 136.112L114.953 136.175C105.995 136.876 97.376 139.235 89.3358 143.185C81.5234 147.024 74.5472 152.215 68.6011 158.616C56.3829 171.769 49.6541 188.905 49.6541 206.869C49.6541 216.442 51.5288 225.729 55.2263 234.471C57.0035 238.672 59.2032 242.725 61.7643 246.516C64.3012 250.271 67.2148 253.802 70.424 257.011C73.6331 260.221 77.1644 263.134 80.9196 265.671C84.7105 268.232 88.7631 270.432 92.9647 272.209C101.707 275.907 110.993 277.781 120.567 277.781H311.999H324.091ZM324.091 278.781H311.999H120.567C80.8506 278.781 48.6541 246.585 48.6541 206.869C48.6541 169.068 77.8187 138.079 114.875 135.178C121.004 91.4393 158.571 57.7819 203.999 57.7819C237.702 57.7819 267.076 76.305 282.499 103.728C291.741 100.522 301.666 98.7814 311.999 98.7814C361.705 98.7814 401.999 139.076 401.999 188.781C401.999 203.241 398.59 216.903 392.531 229.009C383.194 257.891 356.081 278.781 324.091 278.781Z" fill="white" fill-opacity="0.5"/>
</g>
</g>
<defs>
<filter id="filter0_f_240_3543" x="0" y="2.62991" width="406" height="280.152" filterUnits="userSpaceOnUse" color-interpolation-filters="sRGB">
<feFlood flood-opacity="0" result="BackgroundImageFix"/>
<feBlend mode="normal" in="SourceGraphic" in2="BackgroundImageFix" result="shape"/>
<feGaussianBlur stdDeviation="2" result="effect1_foregroundBlur_240_3543"/>
</filter>
<filter id="filter1_f_240_3543" x="81.9736" y="0" width="138.879" height="135.194" filterUnits="userSpaceOnUse" color-interpolation-filters="sRGB">
<feFlood flood-opacity="0" result="BackgroundImageFix"/>
<feBlend mode="normal" in="SourceGraphic" in2="BackgroundImageFix" result="shape"/>
<feGaussianBlur stdDeviation="10" result="effect1_foregroundBlur_240_3543"/>
</filter>
<filter id="filter2_d_240_3543" x="28.6541" y="29.7819" width="413.345" height="281" filterUnits="userSpaceOnUse" color-interpolation-filters="sRGB">
<feFlood flood-opacity="0" result="BackgroundImageFix"/>
<feColorMatrix in="SourceAlpha" type="matrix" values="0 0 0 0 0 0 0 0 0 0 0 0 0 0 0 0 0 0 127 0" result="hardAlpha"/>
<feOffset dx="10" dy="2"/>
<feGaussianBlur stdDeviation="15"/>
<feColorMatrix type="matrix" values="0 0 0 0 0.501961 0 0 0 0 0.501961 0 0 0 0 0.501961 0 0 0 0.302 0"/>
<feBlend mode="normal" in2="BackgroundImageFix" result="effect1_dropShadow_240_3543"/>
<feBlend mode="normal" in="SourceGraphic" in2="effect1_dropShadow_240_3543" result="shape"/>
</filter>
<linearGradient id="paint0_linear_240_3543" x1="225.352" y1="57.7844" x2="327.995" y2="305.948" gradientUnits="userSpaceOnUse">
<stop stop-color="white" stop-opacity="0.604"/>
<stop offset="1" stop-color="white" stop-opacity="0.2"/>
</linearGradient>
</defs>
</svg>
