<svg width="432" height="311" viewBox="0 0 432 311" fill="none" xmlns="http://www.w3.org/2000/svg">
<g filter="url(#filter0_f_240_3534)">
<path d="M107.57 214.46C161.97 214.46 206.07 170.136 206.07 115.46C206.07 60.7836 161.97 16.4598 107.57 16.4598C53.1703 16.4598 9.07031 60.7836 9.07031 115.46C9.07031 170.136 53.1703 214.46 107.57 214.46Z" fill="#FA9E42"/>
<g filter="url(#filter1_f_240_3534)">
<path d="M100.453 101.381C133.189 83.9931 151.5 54.4064 141.35 35.2971C131.2 16.1879 96.4339 14.7924 63.6973 32.1803C30.9606 49.5681 12.6504 79.1549 22.8001 98.2641C32.9499 117.373 67.7162 118.769 100.453 101.381Z" fill="#F8E36F"/>
</g>
<g filter="url(#filter2_d_240_3534)">
<path d="M301.415 278.46H109.983C91.4129 278.446 73.5679 271.248 60.184 258.375C46.8001 245.501 38.915 227.949 38.1795 209.393C37.444 190.837 43.9151 172.716 56.238 158.824C68.5609 144.931 85.7803 136.344 104.291 134.86C106.931 116.22 115.348 98.8764 128.359 85.2697C141.37 71.663 158.319 62.4778 176.822 59.0062C195.325 55.5346 214.451 57.9513 231.509 65.9165C248.567 73.8817 262.698 86.9944 271.915 103.41C288.821 97.5578 307.086 96.874 324.381 101.446C341.676 106.017 357.218 115.637 369.023 129.078C380.829 142.519 388.363 159.172 390.665 176.913C392.967 194.654 389.932 212.678 381.947 228.687C377.262 243.15 368.115 255.758 355.819 264.7C343.523 273.642 328.711 278.459 313.507 278.46H301.415Z" fill="url(#paint0_linear_240_3534)"/>
<path d="M313.507 277.459C321.227 277.459 328.816 276.227 336.066 273.796C343.076 271.445 349.658 268.015 355.628 263.6C361.529 259.236 366.702 254.008 371.003 248.062C375.357 242.042 378.719 235.42 380.996 228.379L381.019 228.307L381.053 228.239C384.08 222.191 386.411 215.793 387.981 209.223C389.597 202.462 390.416 195.477 390.416 188.459C390.416 182.42 389.807 176.385 388.608 170.522C387.438 164.808 385.694 159.188 383.422 153.817C381.192 148.544 378.431 143.457 375.216 138.699C372.032 133.986 368.376 129.555 364.348 125.527C360.32 121.499 355.888 117.843 351.176 114.659C346.418 111.444 341.331 108.683 336.058 106.453C330.687 104.181 325.067 102.437 319.353 101.267C313.49 100.068 307.455 99.4592 301.416 99.4592C291.416 99.4592 281.601 101.105 272.243 104.35L271.453 104.624L271.043 103.896C263.427 90.354 252.35 78.9814 239.007 71.0076C232.26 66.975 225.01 63.8587 217.461 61.7454C209.672 59.5652 201.582 58.4597 193.416 58.4597C182.431 58.4597 171.708 60.4367 161.545 64.3358C151.727 68.1024 142.72 73.5435 134.776 80.5077C126.876 87.432 120.321 95.6019 115.292 104.791C110.139 114.205 106.771 124.367 105.282 134.995L105.17 135.79L104.369 135.853C95.4111 136.554 86.7922 138.913 78.7521 142.863C70.9397 146.701 63.9635 151.893 58.0173 158.294C45.7992 171.447 39.0703 188.583 39.0703 206.547C39.0703 216.12 40.9451 225.407 44.6426 234.149C46.4198 238.35 48.6194 242.403 51.1805 246.194C53.7175 249.949 56.631 253.48 59.8402 256.689C63.0494 259.899 66.5807 262.812 70.3358 265.349C74.1268 267.91 78.1793 270.11 82.381 271.887C91.1228 275.585 100.409 277.459 109.983 277.459H301.416H313.507ZM313.507 278.459H301.416H109.983C70.2669 278.459 38.0703 246.263 38.0703 206.547C38.0703 168.745 67.235 137.756 104.291 134.856C110.421 91.1171 147.987 57.4597 193.416 57.4597C227.118 57.4597 256.493 75.9829 271.915 103.406C281.157 100.2 291.083 98.4592 301.416 98.4592C351.121 98.4592 391.416 138.754 391.416 188.459C391.416 202.918 388.006 216.58 381.947 228.687C372.61 257.569 345.498 278.459 313.507 278.459Z" fill="white" fill-opacity="0.5"/>
</g>
</g>
<defs>
<filter id="filter0_f_240_3534" x="5.07031" y="12.4598" width="390.345" height="270" filterUnits="userSpaceOnUse" color-interpolation-filters="sRGB">
<feFlood flood-opacity="0" result="BackgroundImageFix"/>
<feBlend mode="normal" in="SourceGraphic" in2="BackgroundImageFix" result="shape"/>
<feGaussianBlur stdDeviation="2" result="effect1_foregroundBlur_240_3534"/>
</filter>
<filter id="filter1_f_240_3534" x="0" y="3.05176e-05" width="164.15" height="133.561" filterUnits="userSpaceOnUse" color-interpolation-filters="sRGB">
<feFlood flood-opacity="0" result="BackgroundImageFix"/>
<feBlend mode="normal" in="SourceGraphic" in2="BackgroundImageFix" result="shape"/>
<feGaussianBlur stdDeviation="10" result="effect1_foregroundBlur_240_3534"/>
</filter>
<filter id="filter2_d_240_3534" x="18.0703" y="29.4597" width="413.345" height="281" filterUnits="userSpaceOnUse" color-interpolation-filters="sRGB">
<feFlood flood-opacity="0" result="BackgroundImageFix"/>
<feColorMatrix in="SourceAlpha" type="matrix" values="0 0 0 0 0 0 0 0 0 0 0 0 0 0 0 0 0 0 127 0" result="hardAlpha"/>
<feOffset dx="10" dy="2"/>
<feGaussianBlur stdDeviation="15"/>
<feColorMatrix type="matrix" values="0 0 0 0 0.501961 0 0 0 0 0.501961 0 0 0 0 0.501961 0 0 0 0.302 0"/>
<feBlend mode="normal" in2="BackgroundImageFix" result="effect1_dropShadow_240_3534"/>
<feBlend mode="normal" in="SourceGraphic" in2="effect1_dropShadow_240_3534" result="shape"/>
</filter>
<linearGradient id="paint0_linear_240_3534" x1="214.768" y1="57.4623" x2="317.411" y2="305.626" gradientUnits="userSpaceOnUse">
<stop stop-color="white" stop-opacity="0.604"/>
<stop offset="1" stop-color="white" stop-opacity="0.2"/>
</linearGradient>
</defs>
</svg>
