<svg width="252" height="262" viewBox="0 0 252 262" fill="none" xmlns="http://www.w3.org/2000/svg">
<g filter="url(#filter0_f_240_2772)">
<path d="M126.872 40.7209L126.872 236.824" stroke="#42A0F0" stroke-width="10" stroke-linecap="round"/>
<path d="M126.48 88.6579L160.253 53.7949" stroke="#42A0F0" stroke-width="10" stroke-linecap="round"/>
<path d="M126.48 88.6579L91.6172 53.7949" stroke="#42A0F0" stroke-width="10" stroke-linecap="round"/>
<path d="M126.48 193.246L160.253 228.109" stroke="#42A0F0" stroke-width="10" stroke-linecap="round"/>
<path d="M126.48 193.246L91.6172 228.109" stroke="#42A0F0" stroke-width="10" stroke-linecap="round"/>
<path d="M211.318 90.5577L41.4882 188.609" stroke="#42A0F0" stroke-width="10" stroke-linecap="round"/>
<path d="M169.608 114.187L216.687 126.004" stroke="#42A0F0" stroke-width="10" stroke-linecap="round"/>
<path d="M169.608 114.187L182.369 66.563" stroke="#42A0F0" stroke-width="10" stroke-linecap="round"/>
<path d="M79.0322 166.481L65.7265 213.16" stroke="#42A0F0" stroke-width="10" stroke-linecap="round"/>
<path d="M79.0321 166.481L31.4083 153.72" stroke="#42A0F0" stroke-width="10" stroke-linecap="round"/>
<path d="M210.382 188.61L40.5522 90.5582" stroke="#42A0F0" stroke-width="10" stroke-linecap="round"/>
<path d="M169.064 164.302L182.369 210.982" stroke="#42A0F0" stroke-width="10" stroke-linecap="round"/>
<path d="M169.064 164.302L216.688 151.541" stroke="#42A0F0" stroke-width="10" stroke-linecap="round"/>
<path d="M78.4878 112.008L31.4091 123.825" stroke="#42A0F0" stroke-width="10" stroke-linecap="round"/>
<path d="M78.4879 112.008L65.7272 64.3841" stroke="#42A0F0" stroke-width="10" stroke-linecap="round"/>
</g>
<g filter="url(#filter1_f_240_2772)">
<path d="M54.8652 1.5V14.894" stroke="#42A0F0" stroke-linecap="round"/>
<path d="M54.5752 4.76796L56.7542 3.67896" stroke="#42A0F0" stroke-linecap="round"/>
<path d="M54.5751 4.76796L51.3071 3.67896" stroke="#42A0F0" stroke-linecap="round"/>
<path d="M54.5752 12.395L56.7542 13.484" stroke="#42A0F0" stroke-linecap="round"/>
<path d="M54.5751 12.395L51.3071 13.484" stroke="#42A0F0" stroke-linecap="round"/>
<path d="M60.6333 4.90442L49.0338 11.6014" stroke="#42A0F0" stroke-linecap="round"/>
<path d="M57.7842 6.51801L60.9997 7.32544" stroke="#42A0F0" stroke-linecap="round"/>
<path d="M57.7843 6.51801L58.6558 3.2655" stroke="#42A0F0" stroke-linecap="round"/>
<path d="M51.5972 10.09L50.6887 13.2784" stroke="#42A0F0" stroke-linecap="round"/>
<path d="M51.5972 10.09L48.3447 9.21845" stroke="#42A0F0" stroke-linecap="round"/>
<path d="M60.5688 11.6014L48.9693 4.90444" stroke="#42A0F0" stroke-linecap="round"/>
<path d="M57.7471 9.94097L58.6556 13.1294" stroke="#42A0F0" stroke-linecap="round"/>
<path d="M57.747 9.94096L60.9995 9.06946" stroke="#42A0F0" stroke-linecap="round"/>
<path d="M51.5601 6.36902L48.3446 7.17644" stroke="#42A0F0" stroke-linecap="round"/>
<path d="M51.56 6.36901L50.6885 3.11651" stroke="#42A0F0" stroke-linecap="round"/>
</g>
<g filter="url(#filter2_f_240_2772)">
<path d="M239.651 31.155V54.115" stroke="#42A0F0" stroke-linecap="round"/>
<path d="M238.694 36.363L243.052 35.274" stroke="#42A0F0" stroke-linecap="round"/>
<path d="M238.694 36.363L233.247 35.274" stroke="#42A0F0" stroke-linecap="round"/>
<path d="M238.694 49.437L243.052 51.616" stroke="#42A0F0" stroke-linecap="round"/>
<path d="M238.694 49.437L233.247 51.616" stroke="#42A0F0" stroke-linecap="round"/>
<path d="M249.538 36.99L229.654 48.47" stroke="#42A0F0" stroke-linecap="round"/>
<path d="M244.654 39.7567L250.166 41.14" stroke="#42A0F0" stroke-linecap="round"/>
<path d="M244.654 39.7567L246.148 34.1805" stroke="#42A0F0" stroke-linecap="round"/>
<path d="M234.049 45.8792L232.491 51.3444" stroke="#42A0F0" stroke-linecap="round"/>
<path d="M234.049 45.8791L228.473 44.385" stroke="#42A0F0" stroke-linecap="round"/>
<path d="M249.428 48.4709L229.544 36.9909" stroke="#42A0F0" stroke-linecap="round"/>
<path d="M244.59 45.6246L246.148 51.0899" stroke="#42A0F0" stroke-linecap="round"/>
<path d="M244.59 45.6246L250.166 44.1305" stroke="#42A0F0" stroke-linecap="round"/>
<path d="M233.985 39.5022L228.473 40.8855" stroke="#42A0F0" stroke-linecap="round"/>
<path d="M233.985 39.5022L232.491 33.926" stroke="#42A0F0" stroke-linecap="round"/>
</g>
<g filter="url(#filter3_f_240_2772)">
<path d="M225.508 200.022V218.872" stroke="#42A0F0" stroke-linecap="round"/>
<path d="M224.531 204.14L227.799 203.051" stroke="#42A0F0" stroke-linecap="round"/>
<path d="M224.531 204.14L220.173 203.051" stroke="#42A0F0" stroke-linecap="round"/>
<path d="M224.531 215.035L227.799 217.214" stroke="#42A0F0" stroke-linecap="round"/>
<path d="M224.531 215.035L220.173 217.214" stroke="#42A0F0" stroke-linecap="round"/>
<path d="M233.625 204.813L217.301 214.238" stroke="#42A0F0" stroke-linecap="round"/>
<path d="M229.616 207.084L234.141 208.22" stroke="#42A0F0" stroke-linecap="round"/>
<path d="M229.616 207.084L230.843 202.506" stroke="#42A0F0" stroke-linecap="round"/>
<path d="M220.91 212.11L219.631 216.597" stroke="#42A0F0" stroke-linecap="round"/>
<path d="M220.91 212.11L216.332 210.884" stroke="#42A0F0" stroke-linecap="round"/>
<path d="M233.536 214.238L217.211 204.813" stroke="#42A0F0" stroke-linecap="round"/>
<path d="M229.564 211.901L230.843 216.388" stroke="#42A0F0" stroke-linecap="round"/>
<path d="M229.564 211.901L234.142 210.674" stroke="#42A0F0" stroke-linecap="round"/>
<path d="M220.858 206.875L216.333 208.01" stroke="#42A0F0" stroke-linecap="round"/>
<path d="M220.858 206.875L219.631 202.297" stroke="#42A0F0" stroke-linecap="round"/>
</g>
<g filter="url(#filter4_f_240_2772)">
<path d="M70.7139 243.6V260.205" stroke="#42A0F0" stroke-linecap="round"/>
<path d="M69.8271 247.718L73.0951 246.629" stroke="#42A0F0" stroke-linecap="round"/>
<path d="M69.8271 247.718L66.5591 246.629" stroke="#42A0F0" stroke-linecap="round"/>
<path d="M69.8271 256.434L73.0951 258.613" stroke="#42A0F0" stroke-linecap="round"/>
<path d="M69.8271 256.434L66.5591 258.613" stroke="#42A0F0" stroke-linecap="round"/>
<path d="M77.8647 247.82L63.4844 256.123" stroke="#42A0F0" stroke-linecap="round"/>
<path d="M74.3331 249.821L78.3196 250.822" stroke="#42A0F0" stroke-linecap="round"/>
<path d="M74.3331 249.821L75.4136 245.788" stroke="#42A0F0" stroke-linecap="round"/>
<path d="M66.6636 254.249L65.5371 258.202" stroke="#42A0F0" stroke-linecap="round"/>
<path d="M66.6635 254.249L62.631 253.169" stroke="#42A0F0" stroke-linecap="round"/>
<path d="M77.7852 256.122L63.4048 247.82" stroke="#42A0F0" stroke-linecap="round"/>
<path d="M74.2868 254.064L75.4133 258.017" stroke="#42A0F0" stroke-linecap="round"/>
<path d="M74.2868 254.064L78.3193 252.984" stroke="#42A0F0" stroke-linecap="round"/>
<path d="M66.6172 249.636L62.6307 250.637" stroke="#42A0F0" stroke-linecap="round"/>
<path d="M66.6173 249.636L65.5368 245.603" stroke="#42A0F0" stroke-linecap="round"/>
</g>
<g filter="url(#filter5_f_240_2772)">
<path d="M8.05713 173.874V187.342" stroke="#42A0F0" stroke-linecap="round"/>
<path d="M7.72803 176.903L9.90703 175.814" stroke="#42A0F0" stroke-linecap="round"/>
<path d="M7.72796 176.903L4.45996 175.814" stroke="#42A0F0" stroke-linecap="round"/>
<path d="M7.72803 184.529L9.90703 185.618" stroke="#42A0F0" stroke-linecap="round"/>
<path d="M7.72796 184.529L4.45996 185.618" stroke="#42A0F0" stroke-linecap="round"/>
<path d="M13.8555 177.297L2.19184 184.031" stroke="#42A0F0" stroke-linecap="round"/>
<path d="M10.9907 178.919L14.2235 179.731" stroke="#42A0F0" stroke-linecap="round"/>
<path d="M10.9909 178.919L11.8672 175.649" stroke="#42A0F0" stroke-linecap="round"/>
<path d="M4.77002 182.511L3.85625 185.716" stroke="#42A0F0" stroke-linecap="round"/>
<path d="M4.77024 182.511L1.49998 181.635" stroke="#42A0F0" stroke-linecap="round"/>
<path d="M13.7915 184.031L2.12787 177.297" stroke="#42A0F0" stroke-linecap="round"/>
<path d="M10.9541 182.361L11.8678 185.567" stroke="#42A0F0" stroke-linecap="round"/>
<path d="M10.9539 182.361L14.2241 181.485" stroke="#42A0F0" stroke-linecap="round"/>
<path d="M4.7334 178.77L1.50063 179.581" stroke="#42A0F0" stroke-linecap="round"/>
<path d="M4.73318 178.77L3.85691 175.5" stroke="#42A0F0" stroke-linecap="round"/>
</g>
<defs>
<filter id="filter0_f_240_2772" x="22.4072" y="31.7209" width="203.282" height="214.103" filterUnits="userSpaceOnUse" color-interpolation-filters="sRGB">
<feFlood flood-opacity="0" result="BackgroundImageFix"/>
<feBlend mode="normal" in="SourceGraphic" in2="BackgroundImageFix" result="shape"/>
<feGaussianBlur stdDeviation="2" result="effect1_foregroundBlur_240_2772"/>
</filter>
<filter id="filter1_f_240_2772" x="46.8442" y="0" width="15.6558" height="16.394" filterUnits="userSpaceOnUse" color-interpolation-filters="sRGB">
<feFlood flood-opacity="0" result="BackgroundImageFix"/>
<feBlend mode="normal" in="SourceGraphic" in2="BackgroundImageFix" result="shape"/>
<feGaussianBlur stdDeviation="0.5" result="effect1_foregroundBlur_240_2772"/>
</filter>
<filter id="filter2_f_240_2772" x="226.973" y="29.655" width="24.6929" height="25.96" filterUnits="userSpaceOnUse" color-interpolation-filters="sRGB">
<feFlood flood-opacity="0" result="BackgroundImageFix"/>
<feBlend mode="normal" in="SourceGraphic" in2="BackgroundImageFix" result="shape"/>
<feGaussianBlur stdDeviation="0.5" result="effect1_foregroundBlur_240_2772"/>
</filter>
<filter id="filter3_f_240_2772" x="214.832" y="198.522" width="20.8096" height="21.85" filterUnits="userSpaceOnUse" color-interpolation-filters="sRGB">
<feFlood flood-opacity="0" result="BackgroundImageFix"/>
<feBlend mode="normal" in="SourceGraphic" in2="BackgroundImageFix" result="shape"/>
<feGaussianBlur stdDeviation="0.5" result="effect1_foregroundBlur_240_2772"/>
</filter>
<filter id="filter4_f_240_2772" x="61.1304" y="242.1" width="18.6895" height="19.605" filterUnits="userSpaceOnUse" color-interpolation-filters="sRGB">
<feFlood flood-opacity="0" result="BackgroundImageFix"/>
<feBlend mode="normal" in="SourceGraphic" in2="BackgroundImageFix" result="shape"/>
<feGaussianBlur stdDeviation="0.5" result="effect1_foregroundBlur_240_2772"/>
</filter>
<filter id="filter5_f_240_2772" x="0" y="172.374" width="15.7241" height="16.468" filterUnits="userSpaceOnUse" color-interpolation-filters="sRGB">
<feFlood flood-opacity="0" result="BackgroundImageFix"/>
<feBlend mode="normal" in="SourceGraphic" in2="BackgroundImageFix" result="shape"/>
<feGaussianBlur stdDeviation="0.5" result="effect1_foregroundBlur_240_2772"/>
</filter>
</defs>
</svg>
